<?xml version="1.0" encoding="UTF-8"?>
<svg id="_レイヤー_1" data-name="レイヤー 1" xmlns="http://www.w3.org/2000/svg" viewBox="0 0 31.79 31.96">
  <defs>
    <style>
      .cls-1 {
        stroke-width: 0px;
      }
    </style>
  </defs>
  <path class="cls-1" d="M7.44,0C4.51,0,2.13,2.37,2.13,5.31s2.38,5.31,5.31,5.31,5.32-2.38,5.32-5.31S10.38,0,7.44,0ZM7.44,9.62c-2.38,0-4.31-1.93-4.31-4.31S5.06,1,7.44,1s4.32,1.93,4.32,4.31-1.94,4.31-4.32,4.31Z"/>
  <g>
    <path class="cls-1" d="M27.41,12.71c-1-2.43-3.35-3.89-5.82-3.89-.8,0-1.62.15-2.41.48-3.21,1.33-4.74,5.01-3.41,8.23,1,2.43,3.35,3.89,5.82,3.89.81,0,1.62-.15,2.41-.48,3.22-1.33,4.74-5.01,3.41-8.23ZM26.49,17.15c-.55,1.31-1.56,2.33-2.87,2.87-.65.27-1.33.4-2.03.4-2.15,0-4.07-1.28-4.9-3.27-1.12-2.7.17-5.81,2.87-6.93.65-.27,1.33-.4,2.03-.4,2.15,0,4.08,1.28,4.9,3.27.54,1.31.54,2.75,0,4.06Z"/>
    <path class="cls-1" d="M31.63,13.31l-1.59-.56c-.09-.33-.2-.66-.33-.99-.14-.32-.29-.63-.46-.93l.73-1.52c-.71-1.02-1.58-1.89-2.57-2.57l-1.53.72c-.6-.33-1.24-.6-1.9-.78l-.57-1.6c-.6-.11-1.21-.16-1.82-.16s-1.21.05-1.81.16l-.57,1.59c-.33.09-.65.21-.98.34-.32.13-.63.28-.93.45l-1.52-.72c-1.02.7-1.89,1.58-2.57,2.56l.72,1.53c-.34.6-.6,1.24-.79,1.9l-.75.27-.84.3c-.02.1-.03.19-.05.29.34.22.65.48.92.77.01-.11.02-.21.03-.32l.78-.27.25-.09c.31-.11.54-.36.63-.68.16-.58.4-1.15.69-1.68.16-.28.18-.62.04-.92l-.47-.98c.45-.57.96-1.08,1.52-1.52l.98.46c.14.07.29.1.43.1.17,0,.34-.04.49-.13.27-.15.55-.28.83-.4.27-.11.57-.21.87-.3.31-.09.56-.32.66-.62l.37-1.03c.35-.04.71-.06,1.07-.06s.72.02,1.08.06l.37,1.03c.11.31.36.54.67.63.58.16,1.15.4,1.69.7.15.08.32.12.48.12.15,0,.3-.03.43-.09l.99-.47c.56.45,1.07.96,1.52,1.52l-.47.98c-.14.3-.13.64.03.93.15.26.28.53.4.82.12.28.22.57.3.86.09.32.32.57.63.68l1.02.36c.09.72.09,1.44,0,2.15l-1.03.37c-.3.1-.54.35-.62.67-.17.59-.41,1.15-.7,1.68-.16.28-.18.63-.04.92l.47.99c-.45.56-.95,1.07-1.52,1.52l-.98-.47c-.14-.06-.29-.1-.43-.1-.17,0-.34.05-.49.13-.27.15-.55.29-.83.4-.27.11-.57.22-.86.3-.32.09-.56.32-.67.63l-.37,1.02c-.35.04-.71.06-1.07.06s-.72-.02-1.08-.06l-.37-1.03c-.1-.3-.36-.54-.67-.63-.58-.16-1.15-.39-1.68-.69-.15-.09-.32-.13-.49-.13-.15,0-.29.03-.43.09l-.99.47c-.31-.25-.61-.51-.89-.8-.22-.23-.43-.47-.63-.72l.47-.98c.14-.29.13-.63-.03-.92-.15-.27-.28-.55-.4-.83-.11-.27-.21-.57-.3-.86-.06-.19-.16-.36-.31-.48.13.47.2.97.2,1.48v3.69c.31.35.64.68,1,.98.25.22.51.41.78.6l1.53-.72c.6.34,1.24.6,1.9.79l.57,1.59c.6.11,1.21.16,1.82.16s1.21-.05,1.81-.16l.57-1.59c.33-.09.65-.2.98-.34.32-.13.63-.28.93-.45l1.52.73c1.02-.71,1.89-1.58,2.57-2.57l-.72-1.53c.34-.6.6-1.24.79-1.9l1.59-.57c.21-1.18.22-2.41,0-3.63Z"/>
    <path class="cls-1" d="M24.2,14.04c-.45-1.08-1.5-1.74-2.61-1.74-.36,0-.73.07-1.08.21-1.44.6-2.12,2.25-1.53,3.69.45,1.09,1.5,1.74,2.61,1.74.36,0,.73-.06,1.08-.21,1.44-.6,2.12-2.25,1.53-3.69ZM23.27,15.82c-.18.45-.53.8-.98.99-.23.09-.46.13-.7.13-.74,0-1.4-.44-1.68-1.12-.39-.93.06-2,.98-2.38.23-.09.46-.14.7-.14.74,0,1.4.44,1.68,1.12.19.45.19.95,0,1.4Z"/>
  </g>
  <path class="cls-1" d="M13.23,13.77c-.24-.29-.53-.55-.84-.77-1.1-.86-2.49-1.36-3.99-1.36h-1.82c-3.64,0-6.58,2.95-6.58,6.59v13.73h14.99v-13.73c0-1.72-.66-3.29-1.76-4.46ZM13.99,30.96H1v-12.73c0-3.08,2.5-5.59,5.58-5.59h1.82c1.15,0,2.22.35,3.1.95.34.22.65.48.92.77.64.66,1.12,1.48,1.37,2.39.13.47.2.97.2,1.48v12.73Z"/>
</svg>
