<?xml version="1.0" encoding="UTF-8"?>
<svg id="_レイヤー_1" data-name="レイヤー 1" xmlns="http://www.w3.org/2000/svg" viewBox="0 0 24 21.36">
  <defs>
    <style>
      .cls-1 {
        fill: #eea114;
      }

      .cls-1, .cls-2 {
        stroke-width: 0px;
      }
    </style>
  </defs>
  <path class="cls-1" d="M10.12,1.09L.29,18.1c-.84,1.45.21,3.26,1.88,3.26h19.64c1.67,0,2.72-1.81,1.88-3.26L13.88,1.09c-.84-1.45-2.93-1.45-3.77,0Z"/>
  <path class="cls-2" d="M10.59,16.87c0-.87.59-1.48,1.41-1.48s1.41.61,1.41,1.48-.55,1.46-1.41,1.46-1.41-.64-1.41-1.46ZM12.93,14.26h-1.86l-.27-7.18c-.03-.68.52-1.25,1.2-1.25h0c.68,0,1.23.57,1.2,1.25l-.27,7.18Z"/>
</svg>