<?xml version="1.0" encoding="UTF-8"?>
<svg id="_レイヤー_1" data-name="レイヤー 1" xmlns="http://www.w3.org/2000/svg" viewBox="0 0 19.93 20.51">
  <defs>
    <style>
      .cls-1 {
        stroke-width: 0px;
      }
    </style>
  </defs>
  <path class="cls-1" d="M14.56.5c0-.28-.22-.5-.5-.5H.5C.22,0,0,.22,0,.5v17.46c0,.28.22.5.5.5s.5-.22.5-.5V1h13.06c.28,0,.5-.22.5-.5Z"/>
  <path class="cls-1" d="M19.81,6.31c-.18-.21-.49-.24-.7-.06l-2.59,2.18-1,.85-6.35,5.35-2.6-2.62c-.19-.2-.51-.2-.71-.01-.19.2-.19.51,0,.71l3.25,3.28,6.41-5.41v8.94H3.96V4.05h11.56v4.13l1-.85V3.05H2.96v17.47h13.56v-10.78l3.23-2.73c.21-.18.24-.49.06-.7Z"/>
</svg>