<?xml version="1.0" encoding="UTF-8"?>
<svg id="_レイヤー_1" data-name="レイヤー 1" xmlns="http://www.w3.org/2000/svg" viewBox="0 0 23.86 32">
  <defs>
    <style>
      .cls-1 {
        stroke-width: 0px;
      }
    </style>
  </defs>
  <path class="cls-1" d="M16.57,26.08c.43,0,.77-.35.77-.78v-12.62c0-.43-.34-.78-.77-.78s-.77.35-.77.78v12.62c0,.43.34.78.77.78Z"/>
  <path class="cls-1" d="M12.02,26.08c.43,0,.77-.35.77-.78v-12.62c0-.43-.34-.78-.77-.78s-.77.35-.77.78v12.62c0,.43.34.78.77.78Z"/>
  <path class="cls-1" d="M7.46,26.08c.43,0,.77-.35.77-.78v-12.62c0-.43-.34-.78-.77-.78s-.77.35-.77.78v12.62c0,.43.34.78.77.78Z"/>
  <path class="cls-1" d="M23.09,6.39h-4.6V2.1c0-1.16-.93-2.1-2.08-2.1H7.45c-1.15,0-2.08.94-2.08,2.1v4.29H.77c-.43,0-.77.35-.77.78s.34.78.77.78h1.26v24.05h19.8V7.95h1.26c.43,0,.77-.35.77-.78s-.34-.78-.77-.78ZM20.29,30.4H3.57V8.09h16.72v22.31ZM6.92,2.1c0-.3.24-.54.54-.54h8.95c.3,0,.54.24.54.54v4.29H6.92V2.1Z"/>
</svg>