<?xml version="1.0" encoding="UTF-8"?>
<svg id="_レイヤー_1" data-name="レイヤー 1" xmlns="http://www.w3.org/2000/svg" viewBox="0 0 31.9 32">
  <defs>
    <style>
      .cls-1 {
        stroke-width: 0px;
      }
    </style>
  </defs>
  <path class="cls-1" d="M25.9,0H0v32h31.9V6L25.9,0ZM26.48,2l3.4,3.4h-3.4v-3.4ZM17.76,1.99l3.41,3.41h-3.41V1.99ZM8.72,31H1V1h15.76v5.4h5.42v24.6h-13.46ZM30.9,6.41v24.59h-7.72V6l-5-5h7.3v5.4h5.42Z"/>
  <path class="cls-1" d="M14.77,9.06H4.74c-.28,0-.5.23-.5.5s.22.5.5.5h10.03c.28,0,.5-.22.5-.5s-.22-.5-.5-.5Z"/>
  <path class="cls-1" d="M14.77,12.66H4.74c-.28,0-.5.22-.5.5s.22.5.5.5h10.03c.28,0,.5-.22.5-.5s-.22-.5-.5-.5Z"/>
  <path class="cls-1" d="M14.77,16.26H4.74c-.28,0-.5.22-.5.5s.22.5.5.5h10.03c.28,0,.5-.22.5-.5s-.22-.5-.5-.5Z"/>
</svg>