<?xml version="1.0" encoding="UTF-8"?>
<svg id="_レイヤー_1" data-name="レイヤー 1" xmlns="http://www.w3.org/2000/svg" viewBox="0 0 32 32">
  <defs>
    <style>
      .cls-1 {
        stroke-width: 0px;
      }
    </style>
  </defs>
  <path class="cls-1" d="M16,1c8.27,0,15,6.73,15,15,0,5.56-3.05,10.64-7.97,13.26-2.18,1.16-4.54,1.74-7.03,1.74s-4.88-.6-7.02-1.74c-4.92-2.62-7.98-7.7-7.98-13.26C1,7.73,7.73,1,16,1M16,0C7.17,0,0,7.16,0,16c0,6.13,3.45,11.45,8.51,14.14,2.23,1.19,4.78,1.86,7.49,1.86s5.26-.67,7.5-1.86c5.06-2.69,8.5-8.02,8.5-14.14C32,7.16,24.84,0,16,0h0Z"/>
  <path class="cls-1" d="M24.49,9.86c.22,0,.39.18.39.39v11.49c0,.22-.18.39-.39.39H7.51c-.22,0-.39-.18-.39-.39v-11.49c0-.22.18-.39.39-.39h16.97M24.49,8.86H7.51c-.77,0-1.39.62-1.39,1.39v11.49c0,.77.62,1.39,1.39,1.39h16.97c.77,0,1.39-.62,1.39-1.39v-11.49c0-.77-.62-1.39-1.39-1.39h0Z"/>
  <path class="cls-1" d="M16.03,17.88c-.08,0-.16-.02-.24-.06l-9.09-4.91c-.24-.13-.33-.43-.2-.68.13-.24.44-.33.68-.2l8.85,4.78,8.95-4.78c.24-.13.55-.04.68.21.13.24.04.55-.21.68l-9.18,4.91c-.07.04-.15.06-.24.06Z"/>
  <path class="cls-1" d="M6.87,22.61c-.12,0-.23-.04-.33-.12-.21-.18-.23-.5-.05-.71l5.29-6.18c.18-.21.5-.23.71-.05.21.18.23.5.05.71l-5.29,6.18c-.1.12-.24.17-.38.17Z"/>
  <path class="cls-1" d="M25.18,22.61c-.14,0-.28-.06-.38-.17l-5.29-6.18c-.18-.21-.16-.53.05-.71s.53-.16.71.05l5.29,6.18c.18.21.16.53-.05.71-.09.08-.21.12-.33.12Z"/>
</svg>