<?xml version="1.0" encoding="UTF-8"?>
<svg id="_レイヤー_1" data-name="レイヤー 1" xmlns="http://www.w3.org/2000/svg" viewBox="0 0 22.78 32">
  <defs>
    <style>
      .cls-1 {
        stroke-width: 0px;
      }

      .cls-2 {
        fill: #fff;
        stroke: #000;
        stroke-linecap: round;
        stroke-linejoin: round;
        stroke-width: 1.5px;
      }
    </style>
  </defs>
  <path class="cls-1" d="M16.26,1.5l5.03,5.11v23.89H1.5V1.5h14.76M16.89,0H0v32h22.78V6L16.89,0h0Z"/>
  <path class="cls-1" d="M16.26,1.5l5.03,5.11v23.89H1.5V1.5h14.76M16.89,0H0v32h22.78V6L16.89,0h0Z"/>
  <path class="cls-1" d="M17.97,3.25l1.63,1.65h-1.63v-1.65M16.89,0h-.41v6.4h6.31v-.4L16.89,0h0Z"/>
  <path class="cls-1" d="M17.97,3.25l1.63,1.65h-1.63v-1.65M16.89,0h-.41v6.4h6.31v-.4L16.89,0h0Z"/>
  <line class="cls-2" x1="4.65" y1="9.56" x2="14.51" y2="9.56"/>
  <line class="cls-2" x1="4.65" y1="9.56" x2="14.51" y2="9.56"/>
  <line class="cls-2" x1="4.65" y1="14.3" x2="14.51" y2="14.3"/>
  <line class="cls-2" x1="4.65" y1="14.3" x2="14.51" y2="14.3"/>
  <line class="cls-2" x1="4.65" y1="19.03" x2="14.51" y2="19.03"/>
  <line class="cls-2" x1="4.65" y1="19.03" x2="14.51" y2="19.03"/>
</svg>