<?xml version="1.0" encoding="UTF-8"?>
<svg id="_レイヤー_1" data-name="レイヤー 1" xmlns="http://www.w3.org/2000/svg" viewBox="0 0 37.54 29.39">
  <defs>
    <style>
      .cls-1 {
        stroke: #000;
        stroke-linecap: round;
        stroke-linejoin: round;
      }

      .cls-2 {
        stroke-width: 0px;
      }
    </style>
  </defs>
  <path class="cls-2" d="M26.44,12.74c-.37-.38-.96-.38-1.33,0l-5.39,5.63V.98c0-.54-.42-.98-.94-.98s-.94.44-.94.98v17.38s-5.39-5.63-5.39-5.63c-.37-.38-.96-.38-1.33,0s-.37,1.01,0,1.39l7,7.31c.18.19.43.29.67.29s.48-.1.67-.29l7-7.31c.37-.38.37-1.01,0-1.39Z"/>
  <rect class="cls-1" x="1.03" y="27.39" width="34.86" height="1.5"/>
  <rect class="cls-1" x="35.54" y="15.59" width="1.5" height="13.3"/>
  <rect class="cls-1" x=".5" y="15.59" width="1.5" height="13.3"/>
</svg>