<?xml version="1.0" encoding="UTF-8"?>
<svg id="_レイヤー_1" data-name="レイヤー 1" xmlns="http://www.w3.org/2000/svg" viewBox="0 0 32 32">
  <defs>
    <style>
      .cls-1 {
        stroke-width: 0px;
      }
    </style>
  </defs>
  <path class="cls-1" d="M16,1c8.27,0,15,6.73,15,15,0,5.56-3.05,10.64-7.97,13.26-2.18,1.16-4.54,1.74-7.03,1.74s-4.88-.6-7.02-1.74c-4.92-2.62-7.98-7.7-7.98-13.26C1,7.73,7.73,1,16,1M16,0C7.17,0,0,7.16,0,16c0,6.13,3.45,11.45,8.51,14.14,2.23,1.19,4.78,1.86,7.49,1.86s5.26-.67,7.5-1.86c5.06-2.69,8.5-8.02,8.5-14.14C32,7.16,24.84,0,16,0h0Z"/>
  <g>
    <path class="cls-1" d="M21.85,13.02c.05,0,.09.04.09.09v10.27c0,.05-.04.09-.09.09h-11.71c-.05,0-.09-.04-.09-.09v-10.27c0-.05.04-.09.09-.09h11.71M21.85,12.02h-11.71c-.6,0-1.09.49-1.09,1.09v10.27c0,.6.49,1.09,1.09,1.09h11.71c.6,0,1.09-.49,1.09-1.09v-10.27c0-.6-.49-1.09-1.09-1.09h0Z"/>
    <path class="cls-1" d="M16.04,6.34c1.83,0,3.32,1.49,3.32,3.32v2.36h-6.72v-2.36c0-1.83,1.49-3.32,3.32-3.32h.08M16.04,5.34h-.08c-2.39,0-4.32,1.93-4.32,4.32v3.36h8.72v-3.36c0-2.39-1.93-4.32-4.32-4.32h0Z"/>
    <path class="cls-1" d="M16,16.61c.79,0,1.43.64,1.43,1.43s-.64,1.43-1.43,1.43-1.43-.64-1.43-1.43.64-1.43,1.43-1.43M16,15.61c-1.34,0-2.43,1.09-2.43,2.43s1.09,2.43,2.43,2.43,2.43-1.09,2.43-2.43-1.09-2.43-2.43-2.43h0Z"/>
  </g>
</svg>