<?xml version="1.0" encoding="UTF-8"?>
<svg id="_レイヤー_1" data-name="レイヤー 1" xmlns="http://www.w3.org/2000/svg" viewBox="0 0 53.69 31.99">
  <defs>
    <style>
      .cls-1 {
        stroke-width: 0px;
      }

      .cls-2 {
        fill: none;
        stroke: #000;
        stroke-linecap: round;
        stroke-linejoin: round;
      }
    </style>
  </defs>
  <path class="cls-1" d="M31.97,1.76c-.4-1.31-1.35-1.9-2.7-1.73-1.37.17-2.6.71-3.78,1.39-2.05,1.18-3.85,2.7-5.56,4.32-3.12,2.96-5.92,6.21-8.52,9.62-2.86,3.76-5.64,7.58-8.45,11.38l-1.18,1.61c-.54.73-1.09,1.45-1.61,2.19-.32.48-.16,1.05.35,1.34.06.03.12.07.18.11h.5s.06-.05.1-.07c1.35-.61,2.7-1.24,4.06-1.83.56-.24.8-.61.85-1.21.1-1.23.42-2.38,1.23-3.38.73-.91,1.41-1.88,2.09-2.84.21-.29.44-.41.81-.41,1.35-.03,2.71-.02,4.05-.15,1.75-.18,3.26-.95,4.38-2.34.96-1.18,1.83-2.45,2.73-3.68l1.13-1.59c.33-.43.64-.87.96-1.3,1.75-2.37,3.67-4.59,5.7-6.71l1.42-1.57c.6-.69,1.09-1.44,1.3-2.35.07-.29,0-.66-.04-.8ZM6.79,24.8c-1,1.18-1.4,2.58-1.53,4.08-.01.2-.11.27-.26.33-1.25.57-2.5,1.14-3.75,1.7-.06.03-.13.05-.26.09.53-.73,1.03-1.4,1.52-2.07l1.24-1.69c.81-1.09,1.61-2.19,2.42-3.29.17-.22.33-.45.52-.69.27.2.53.39.81.59-.25.34-.46.66-.71.95ZM31.03,2.5c-.07.27-.16.54-.31.78-.22.36-.48.7-.74,1.04l-1.37,1.51c-.83.92-1.68,1.82-2.5,2.75-.22.25-.44.35-.77.34-1-.02-2-.01-3,0-.31,0-.52.19-.52.46,0,.25.19.44.49.47.08.01.16,0,.25,0h2.12c.09.01.17.02.3.03-.51.64-.99,1.24-1.45,1.85-.12.15-.23.21-.42.21-1.35-.01-2.71-.01-4.06-.01-.33,0-.54.2-.54.48.01.27.22.45.53.46h3.62c-.29.4-.54.73-.78,1.07l-1.15,1.61c-.37.52-.77,1.03-1.11,1.58-.48.76-1.16,1.24-1.95,1.61-1.02.48-2.12.65-3.24.68-1.11.03-2.23.02-3.34.02-.38,0-.58.18-.58.47-.01.3.2.47.57.47,1.01,0,2.02.03,3.03-.02.81-.03,1.61-.16,2.42-.25.19-.02.38-.09.57-.13-.07.13-.16.2-.25.26-.91.62-1.94.92-3.02.99-1.19.07-2.39.07-3.59.08-.6.01-1.06.22-1.4.72-.25.35-.52.7-.79,1.07-.28-.21-.53-.4-.81-.6.06-.08.1-.14.14-.19,1.66-2.23,3.3-4.48,5-6.67,2.71-3.5,5.58-6.85,8.85-9.83,1.72-1.57,3.51-3.01,5.61-4.05.92-.45,1.87-.8,2.92-.82.86-.02,1.46.71,1.27,1.56Z"/>
  <line class="cls-2" x1="29.79" y1="29.38" x2="39.71" y2="29.38"/>
  <line class="cls-2" x1="32.18" y1="25.53" x2="42.1" y2="25.53"/>
  <line class="cls-2" x1="35.82" y1="21.68" x2="44.83" y2="21.68"/>
  <line class="cls-2" x1="38.77" y1="17.84" x2="47.79" y2="17.84"/>
  <circle class="cls-1" cx="52.03" cy="8.64" r="1.65"/>
  <path class="cls-2" d="M25.25,28.89c1.52-6.21,5.52-16,11.59-20.55l15.44.24c-10.59.64-25.9,15.78-27.23,21.95.41-3-1.76-9.65-3.94-13.88"/>
  <line class="cls-2" x1="32.79" y1="12.37" x2="22.85" y2="12.37"/>
</svg>