<?xml version="1.0" encoding="UTF-8"?>
<svg id="_レイヤー_1" data-name="レイヤー 1" xmlns="http://www.w3.org/2000/svg" viewBox="0 0 32.49 32">
  <defs>
    <style>
      .cls-1 {
        stroke-width: 0px;
      }
    </style>
  </defs>
  <path class="cls-1" d="M20.68,32H.5c-.28,0-.5-.22-.5-.5V.5C0,.22.22,0,.5,0h20.18c.28,0,.5.22.5.5v7.58c0,.28-.22.5-.5.5s-.5-.22-.5-.5V1H1v30h19.18v-7.08c0-.28.22-.5.5-.5s.5.22.5.5v7.58c0,.28-.22.5-.5.5Z"/>
  <g>
    <path class="cls-1" d="M25.43,23.06c-.13,0-.26-.05-.35-.15-.2-.2-.2-.51,0-.71l6.21-6.21-6.21-6.21c-.2-.2-.2-.51,0-.71s.51-.2.71,0l6.56,6.56c.2.2.2.51,0,.71l-6.56,6.56c-.1.1-.23.15-.35.15Z"/>
    <path class="cls-1" d="M31.33,16.5H9.67c-.28,0-.5-.22-.5-.5s.22-.5.5-.5h21.67c.28,0,.5.22.5.5s-.22.5-.5.5Z"/>
  </g>
</svg>