<?xml version="1.0" encoding="UTF-8"?>
<svg id="Layer_1" data-name="Layer 1" xmlns="http://www.w3.org/2000/svg" viewBox="0 0 37.31 29.39">
  <defs>
    <style>
      .cls-1 {
        fill: #010101;
        stroke-width: 0px;
      }

      .cls-2 {
        fill: #fff;
        stroke: #010101;
        stroke-miterlimit: 10;
      }
    </style>
  </defs>
  <rect class="cls-2" x=".5" y=".5" width="19.86" height=".5"/>
  <polygon class="cls-2" points="20.36 14.95 18.56 14.95 16.98 14.95 .5 14.95 .5 14.45 20.36 14.45 20.36 14.95"/>
  <polygon class="cls-2" points="20.36 28.89 17.56 28.89 .5 28.89 .5 28.32 20.36 28.32 20.36 28.89"/>
  <path class="cls-1" d="M37.19,14.36l-5.48-6.21c-.16-.18-.43-.18-.59,0s-.16.48,0,.67l4.76,5.41h-10.12c-.23,0-.42.21-.42.47s.19.47.42.47h10.12l-4.76,5.4c-.16.18-.16.48,0,.67.08.09.19.14.3.14s.21-.05.3-.14l5.48-6.21c.16-.18.16-.48,0-.67Z"/>
</svg>