<?xml version="1.0" encoding="UTF-8"?>
<svg id="_レイヤー_1" data-name="レイヤー 1" xmlns="http://www.w3.org/2000/svg" viewBox="0 0 19.98 20.33">
  <defs>
    <style>
      .cls-1 {
        stroke-width: 0px;
      }
    </style>
  </defs>
  <path class="cls-1" d="M19.83,3.49L16.49.15c-.2-.2-.52-.2-.71,0l-2.41,2.41s-.01.01-.02.01c0,.01-.01.02-.01.03l-3.49,3.49-.36.35-.35.35.71.71.35-.35.35-.36,3.16-3.15,2.63,2.63-3.15,3.16-.36.35-.35.35.71.71.35-.35.36-.35,5.93-5.94c.09-.1.15-.22.15-.36,0-.13-.06-.26-.15-.35ZM17.05,5.56l-2.64-2.63,1.72-1.72,2.64,2.63-1.72,1.72Z"/>
  <path class="cls-1" d="M12.11,11.93l-.71-.71-2.64-2.64-.7-.7L1.03.85c-.19-.19-.51-.19-.7,0-.2.2-.2.52,0,.71l7.02,7.02-3.68,3.68-1.27,1.26h0s-.61.61-.61.61c-.06.06-.1.13-.12.2L.03,19.31c-.06.18-.01.38.12.51.1.1.23.15.36.15.05,0,.1-.01.15-.03l4.98-1.63c.08-.03.14-.07.2-.12l1.88-1.88.02-.02,3.66-3.66,7.55,7.56c.1.09.23.14.35.14.13,0,.26-.05.36-.14.19-.2.19-.52,0-.71l-7.55-7.55ZM5.22,17.39l-3.93,1.29,1.29-3.92.18-.17,2.63,2.63-.17.17ZM6.1,16.51l-2.64-2.63,1.27-1.27,3.32-3.32,2.64,2.63-4.59,4.59Z"/>
</svg>