<?xml version="1.0" encoding="UTF-8"?>
<svg id="_レイヤー_1" data-name="レイヤー 1" xmlns="http://www.w3.org/2000/svg" viewBox="0 0 32 32">
  <defs>
    <style>
      .cls-1 {
        stroke-width: 0px;
      }
    </style>
  </defs>
  <path class="cls-1" d="M31.76,5.59L26.41.24c-.32-.32-.83-.32-1.14,0l-3.85,3.86s-.02.01-.03.02-.01.02-.02.03l-15.49,15.49-2.03,2.02v.02l-.98.96c-.1.1-.16.21-.19.32L.04,30.94c-.1.29-.02.61.19.82.16.16.37.24.58.24.08,0,.16-.02.24-.05l7.98-2.61c.13-.05.22-.11.32-.19l3.01-3.01.03-.03L31.76,6.73c.14-.16.24-.35.24-.58,0-.21-.1-.42-.24-.56ZM6.43,21.34l1.14-1.14,14.38-14.39,4.22,4.22-14.39,14.39-2.02,2.02-4.23-4.21.9-.9ZM8.35,27.87l-6.3,2.07,2.07-6.28.29-.27,4.21,4.21-.27.27ZM27.31,8.91l-4.22-4.22,2.75-2.75,4.23,4.21-2.75,2.76Z"/>
</svg>