<?xml version="1.0" encoding="UTF-8"?>
<svg id="_レイヤー_1" data-name="レイヤー 1" xmlns="http://www.w3.org/2000/svg" viewBox="0 0 30.46 31.96">
  <defs>
    <style>
      .cls-1 {
        stroke-width: 0px;
      }
    </style>
  </defs>
  <g>
    <path class="cls-1" d="M7.45,1c2.38,0,4.31,1.93,4.31,4.31s-1.93,4.31-4.31,4.31-4.31-1.93-4.31-4.31S5.07,1,7.45,1M7.45,0C4.51,0,2.13,2.38,2.13,5.31s2.38,5.31,5.31,5.31,5.31-2.38,5.31-5.31S10.38,0,7.45,0h0Z"/>
    <path class="cls-1" d="M8.41,12.65c3.08,0,5.58,2.51,5.58,5.59v12.73H1v-12.73c0-3.08,2.51-5.59,5.59-5.59h1.82M8.41,11.65h-1.82c-3.64,0-6.59,2.95-6.59,6.59v13.73h14.99v-13.73c0-3.64-2.95-6.59-6.58-6.59h0Z"/>
  </g>
  <g>
    <path class="cls-1" d="M23.49,1.09c1.6,0,2.9,1.3,2.9,2.9s-1.3,2.9-2.9,2.9-2.9-1.3-2.9-2.9,1.3-2.9,2.9-2.9M23.49.09c-2.15,0-3.9,1.74-3.9,3.9s1.74,3.9,3.9,3.9,3.9-1.74,3.9-3.9S25.64.09,23.49.09h0Z"/>
    <path class="cls-1" d="M24.2,9.63c2.11,0,3.83,1.72,3.83,3.83v4.38h-8.99v-4.38c0-2.11,1.72-3.83,3.83-3.83h1.34M24.2,8.63h-1.34c-2.67,0-4.83,2.16-4.83,4.83v5.38h10.99v-5.38c0-2.67-2.16-4.83-4.83-4.83h0Z"/>
  </g>
  <path class="cls-1" d="M26.2,22.75l2.85,2.85-2.85,2.85v-5.69M25.2,20.34v10.52l5.26-5.26-5.26-5.26h0Z"/>
  <path class="cls-1" d="M21.12,22.75v5.69l-2.85-2.85,2.85-2.85M22.12,20.34l-5.26,5.26,5.26,5.26v-10.52h0Z"/>
</svg>