<?xml version="1.0" encoding="UTF-8"?>
<svg id="_レイヤー_1" data-name="レイヤー 1" xmlns="http://www.w3.org/2000/svg" viewBox="0 0 32 32">
  <defs>
    <style>
      .cls-1 {
        stroke-width: 0px;
      }
    </style>
  </defs>
  <path class="cls-1" d="M16,7.12h0c1.16,0,2.3.23,3.39.68,2.19.91,3.9,2.61,4.81,4.8.91,2.19.91,4.61,0,6.8-1.38,3.33-4.6,5.49-8.21,5.49-1.16,0-2.31-.23-3.39-.68-2.19-.91-3.9-2.61-4.81-4.8-.91-2.19-.91-4.61,0-6.8,1.38-3.33,4.6-5.49,8.21-5.49M16,6.12c-3.88,0-7.56,2.3-9.13,6.11-2.09,5.04.31,10.82,5.35,12.91,1.24.51,2.52.75,3.77.75,3.88,0,7.56-2.3,9.13-6.11,2.09-5.04-.31-10.82-5.35-12.91-1.24-.51-2.52-.75-3.77-.75h0Z"/>
  <path class="cls-1" d="M16,1c.7,0,1.4.05,2.1.15l.69,1.93c.11.3.36.54.67.63.49.14.97.31,1.42.49.46.19.91.41,1.36.66.15.08.32.13.49.13.15,0,.29-.03.43-.1l1.86-.88c1.13.84,2.12,1.84,2.97,2.97l-.88,1.86c-.14.29-.13.64.03.92.49.87.88,1.8,1.15,2.77.09.31.32.56.63.67l1.94.69c.2,1.4.2,2.81,0,4.21l-1.93.69c-.31.11-.54.36-.63.68-.13.47-.29.95-.49,1.42-.19.47-.42.92-.66,1.35-.16.28-.17.63-.03.92l.88,1.85c-.85,1.13-1.84,2.13-2.98,2.98l-1.86-.88c-.14-.06-.28-.1-.43-.1-.17,0-.34.04-.49.13-.88.49-1.81.88-2.77,1.14-.31.09-.56.32-.67.63l-.69,1.94c-.7.1-1.41.15-2.12.15s-1.4-.05-2.09-.15l-.69-1.94c-.11-.3-.36-.54-.67-.63-.49-.14-.97-.31-1.42-.49-.46-.19-.91-.41-1.36-.66-.15-.08-.32-.13-.49-.13-.15,0-.29.03-.43.1l-1.85.88c-1.13-.85-2.13-1.84-2.98-2.98l.88-1.86c.14-.29.13-.64-.03-.92-.49-.87-.88-1.8-1.14-2.76-.09-.31-.32-.56-.63-.67l-1.94-.69c-.2-1.4-.2-2.81,0-4.21l1.93-.69c.3-.11.54-.36.63-.67.14-.49.31-.97.49-1.42.19-.46.41-.91.66-1.36.16-.28.17-.62.03-.92l-.88-1.85c.85-1.13,1.84-2.13,2.98-2.98l1.86.88c.14.06.28.1.43.1.17,0,.34-.04.49-.13.87-.49,1.8-.88,2.76-1.14.31-.09.56-.32.67-.63l.69-1.94c.7-.1,1.41-.15,2.11-.15M16,0c-.96,0-1.92.09-2.86.26l-.89,2.5c-1.04.29-2.05.71-2.99,1.24l-2.39-1.13c-1.55,1.07-2.92,2.43-4.03,4.03l1.14,2.39c-.26.47-.5.96-.71,1.46-.21.5-.39,1.02-.53,1.53l-2.49.89c-.35,1.91-.34,3.85,0,5.7l2.5.89c.29,1.04.71,2.05,1.24,2.98l-1.13,2.39c1.07,1.55,2.43,2.92,4.03,4.03l2.39-1.14c.47.26.96.5,1.46.71.5.21,1.02.39,1.53.53l.89,2.49c.94.17,1.89.26,2.83.26s1.92-.09,2.86-.26l.89-2.5c1.04-.29,2.05-.71,2.99-1.24l2.39,1.13c1.55-1.07,2.92-2.43,4.03-4.03l-1.14-2.38c.26-.47.5-.95.71-1.46.21-.51.39-1.02.53-1.54l2.49-.88c.35-1.91.34-3.85,0-5.7l-2.49-.89c-.29-1.04-.71-2.05-1.24-2.99l1.13-2.39c-1.07-1.55-2.43-2.92-4.03-4.03l-2.39,1.13c-.47-.26-.96-.5-1.46-.71-.5-.21-1.02-.39-1.53-.53l-.89-2.49c-.95-.17-1.9-.26-2.84-.26h0Z"/>
  <path class="cls-1" d="M16,12.57h0c.45,0,.89.09,1.31.26.85.35,1.5,1.01,1.85,1.85.35.85.35,1.78,0,2.62-.53,1.29-1.78,2.12-3.17,2.12-.45,0-.89-.09-1.31-.26-.85-.35-1.5-1.01-1.85-1.85-.35-.85-.35-1.78,0-2.62.53-1.29,1.78-2.12,3.17-2.12M16,11.57c-1.74,0-3.39,1.03-4.09,2.73-.93,2.26.14,4.85,2.4,5.78.55.23,1.13.34,1.69.34,1.74,0,3.39-1.03,4.09-2.73.93-2.26-.14-4.85-2.4-5.78-.55-.23-1.13-.34-1.69-.34h0Z"/>
</svg>