<?xml version="1.0" encoding="UTF-8"?>
<svg id="_レイヤー_1" data-name="レイヤー 1" xmlns="http://www.w3.org/2000/svg" viewBox="0 0 32 32">
  <defs>
    <style>
      .cls-1 {
        stroke-width: 0px;
      }
    </style>
  </defs>
  <path class="cls-1" d="M16,1c8.27,0,15,6.73,15,15,0,5.56-3.05,10.64-7.97,13.26-2.18,1.16-4.54,1.74-7.03,1.74s-4.88-.6-7.02-1.74c-4.92-2.62-7.98-7.7-7.98-13.26C1,7.73,7.73,1,16,1M16,0C7.17,0,0,7.16,0,16c0,6.13,3.45,11.45,8.51,14.14,2.23,1.19,4.78,1.86,7.49,1.86s5.26-.67,7.5-1.86c5.06-2.69,8.5-8.02,8.5-14.14C32,7.16,24.84,0,16,0h0Z"/>
  <path class="cls-1" d="M15.95,4.59c2.38,0,4.31,1.93,4.31,4.31s-1.93,4.31-4.31,4.31-4.31-1.93-4.31-4.31,1.93-4.31,4.31-4.31M15.95,3.59c-2.93,0-5.31,2.38-5.31,5.31s2.38,5.31,5.31,5.31,5.31-2.38,5.31-5.31-2.38-5.31-5.31-5.31h0Z"/>
  <path class="cls-1" d="M16.91,16.24c3.08,0,5.59,2.5,5.59,5.58v7.71c-2.03.98-4.21,1.47-6.5,1.47s-4.49-.51-6.49-1.47v-7.71c0-3.08,2.5-5.58,5.58-5.58h1.82M16.91,15.24h-1.82c-3.63,0-6.58,2.95-6.58,6.58v8.32c2.23,1.19,4.78,1.86,7.49,1.86s5.26-.67,7.5-1.86v-8.32c0-3.63-2.95-6.58-6.59-6.58h0Z"/>
</svg>